<?xml version="1.0" encoding="utf-8"?>
<svg version="1.1" xmlns:xlink="http://www.w3.org/1999/xlink" width="20px" height="20px" preserveAspectRatio="xMinYMid meet" viewBox="1282 721  20 18" xmlns="http://www.w3.org/2000/svg">
  <defs>
    <mask fill="white" id="clip110">
      <path d="M 1348.5 691  L 1379.5 691  L 1379.5 715  L 1348.5 715  Z M 1280 643  L 1408 643  L 1408 740  L 1280 740  Z " fill-rule="evenodd" />
    </mask>
  </defs>
  <path d="M 1405 643  L 1405 698  A 5 5 0 0 1 1400 703 L 1350 703  A 5 5 0 0 0 1345 708 L 1345 725  A 5 5 0 0 1 1340 730 L 1292 730  " stroke-width="2" stroke="#0099cc" fill="none" mask="url(#clip110)" />
  <path d="M 1297.10710678119 734.292893218813  L 1292.81421356237 730  L 1297.10710678119 725.707106781187  L 1295.69289321881 724.292893218813  L 1290.69289321881 729.292893218813  L 1289.98578643763 730  L 1290.69289321881 730.707106781187  L 1295.69289321881 735.707106781187  L 1297.10710678119 734.292893218813  Z " fill-rule="nonzero" fill="#0099cc" stroke="none" mask="url(#clip110)" />
</svg>