<?xml version="1.0" encoding="utf-8"?>
<svg version="1.1" xmlns:xlink="http://www.w3.org/1999/xlink" width="17px" height="14px" xmlns="http://www.w3.org/2000/svg">
  <g transform="matrix(1 0 0 1 -12 -96 )">
    <path d="M 16.3257211538462 3.20170454545456  C 16.7752403846154 3.63920454545456  17 4.16287878787875  17 4.77272727272731  L 17 11.7727272727273  C 17 12.3825757575758  16.7752403846154 12.90625  16.3257211538462 13.34375  C 15.8762019230769 13.78125  15.338141025641 14  14.7115384615385 14  L 2.28846153846153 14  C 1.66185897435896 14  1.12379807692308 13.78125  0.67427884615384 13.34375  C 0.224759615384613 12.90625  0 12.3825757575758  0 11.7727272727273  L 0 2.22727272727269  C 0 1.61742424242425  0.224759615384613 1.09375  0.67427884615384 0.65625  C 1.12379807692308 0.21875  1.66185897435896 0  2.28846153846153 0  L 5.55769230769231 0  C 6.18429487179488 0  6.72235576923077 0.21875  7.171875 0.65625  C 7.62139423076923 1.09375  7.84615384615384 1.61742424242425  7.84615384615384 2.22727272727269  L 7.84615384615384 2.54545454545456  L 14.7115384615385 2.54545454545456  C 15.338141025641 2.54545454545456  15.8762019230769 2.76420454545456  16.3257211538462 3.20170454545456  Z " fill-rule="nonzero" fill="#ffcc00" stroke="none" transform="matrix(1 0 0 1 12 96 )" />
  </g>
</svg>