<?xml version="1.0" encoding="utf-8"?>
<svg version="1.1" xmlns:xlink="http://www.w3.org/1999/xlink" width="12px" height="14px" xmlns="http://www.w3.org/2000/svg">
  <g transform="matrix(1 0 0 1 -12 -39 )">
    <path d="M 11.6875 4  L 8 4  L 8 0.3125  C 8.11458333333334 0.385416666666657  8.20833333333334 0.458333333333343  8.28125 0.53125  L 11.46875 3.71875  C 11.5416666666667 3.79166666666666  11.6145833333333 3.88541666666666  11.6875 4  Z M 7 0  L 7 4.25  C 7 4.45833333333334  7.07291666666666 4.63541666666666  7.21875 4.78125  C 7.36458333333334 4.92708333333334  7.54166666666666 5  7.75 5  L 12 5  L 12 13.25  C 12 13.4583333333333  11.9270833333333 13.6354166666667  11.78125 13.78125  C 11.6354166666667 13.9270833333333  11.4583333333333 14  11.25 14  L 0.75 14  C 0.541666666666657 14  0.364583333333343 13.9270833333333  0.21875 13.78125  C 0.0729166666666572 13.6354166666667  0 13.4583333333333  0 13.25  L 0 0.75  C 0 0.541666666666657  0.0729166666666572 0.364583333333343  0.21875 0.21875  C 0.364583333333343 0.0729166666666572  0.541666666666657 0  0.75 0  L 7 0  Z " fill-rule="nonzero" fill="#0099ff" stroke="none" transform="matrix(1 0 0 1 12 39 )" />
  </g>
</svg>