<?xml version="1.0" encoding="utf-8"?>
<svg version="1.1" xmlns:xlink="http://www.w3.org/1999/xlink" width="162px" height="133px" xmlns="http://www.w3.org/2000/svg">
  <g transform="matrix(1 0 0 1 -482 0 )">
    <path d="M 155.574519230769 30.4161931818183  C 159.858173076923 34.5724431818183  162 39.5473484848482  162 45.3409090909094  L 162 111.840909090909  C 162 117.63446969697  159.858173076923 122.609375  155.574519230769 126.765625  C 151.290865384615 130.921875  146.163461538461 133  140.192307692308 133  L 21.8076923076923 133  C 15.8365384615383 133  10.7091346153846 130.921875  6.42548076923072 126.765625  C 2.14182692307691 122.609375  0 117.63446969697  0 111.840909090909  L 0 21.1590909090906  C 0 15.3655303030304  2.14182692307691 10.390625  6.42548076923072 6.234375  C 10.7091346153846 2.078125  15.8365384615383 0  21.8076923076923 0  L 52.9615384615385 0  C 58.9326923076924 0  64.0600961538462 2.078125  68.34375 6.234375  C 72.6274038461538 10.390625  74.7692307692307 15.3655303030304  74.7692307692307 21.1590909090906  L 74.7692307692307 25  L 140.192307692308 25  C 146.163461538461 24.1818181818183  151.290865384615 26.2599431818183  155.574519230769 30.4161931818183  Z " fill-rule="nonzero" fill="#ffcc00" stroke="none" transform="matrix(1 0 0 1 482 0 )" />
  </g>
</svg>