<?xml version="1.0" encoding="utf-8"?>
<svg version="1.1" xmlns:xlink="http://www.w3.org/1999/xlink" width="22px" height="22px" xmlns="http://www.w3.org/2000/svg">
  <g transform="matrix(1 0 0 1 -745 -146 )">
    <path d="M 20.971671388102 0  C 21.4079320113315 0  21.7143531633617 0.203125  21.8909348441927 0.609375  C 22.0675165250236 1.03645833333334  21.994806421152 1.40104166666666  21.6728045325779 1.703125  L 14 9.40625  L 14 21  C 13.9915014164305 21.4375  13.7889518413598 21.7447916666667  13.3838526912182 21.921875  C 13.2488196411709 21.9739583333333  13.1189801699717 22  12.9943342776204 22  C 12.7138810198301 22  12.4801699716714 21.9010416666667  12.2932011331445 21.703125  L 8.30453257790373 17.703125  C 8.10717658168085 17.5052083333333  8.00849858356946 17.2708333333333  8.00849858356946 17  L 8.00849858356946 9.40625  L 0.327195467422143 1.703125  C 0.00519357884797955 1.40104166666666  -0.0675165250236205 1.03645833333334  0.109065155807343 0.609375  C 0.285646836638307 0.203125  0.592067988668532 0  1.02832861189802 0  L 20.971671388102 0  Z " fill-rule="nonzero" fill="#999999" stroke="none" transform="matrix(1 0 0 1 745 146 )" />
  </g>
</svg>