<?xml version="1.0" encoding="utf-8"?>
<svg version="1.1" xmlns:xlink="http://www.w3.org/1999/xlink" width="14px" height="8px" xmlns="http://www.w3.org/2000/svg">
  <g transform="matrix(1 0 0 1 -418 -153 )">
    <path d="M 13.740234375 0.263888888888914  C 13.9134114583333 0.439814814814838  14 0.648148148148152  14 0.888888888888914  C 14 1.12962962962962  13.9134114583333 1.33796296296293  13.740234375 1.51388888888891  L 7.615234375 7.73611111111109  C 7.44205729166666 7.91203703703701  7.23697916666666 8  7 8  C 6.76302083333334 8  6.55794270833334 7.91203703703701  6.384765625 7.73611111111109  L 0.259765625 1.51388888888891  C 0.0865885416666572 1.33796296296293  0 1.12962962962962  0 0.888888888888914  C 0 0.648148148148152  0.0865885416666572 0.439814814814838  0.259765625 0.263888888888914  C 0.432942708333343 0.0879629629629335  0.638020833333343 0  0.875 0  L 13.125 0  C 13.3619791666667 0  13.5670572916667 0.0879629629629335  13.740234375 0.263888888888914  Z " fill-rule="nonzero" fill="#333333" stroke="none" transform="matrix(1 0 0 1 418 153 )" />
  </g>
</svg>