<?xml version="1.0" encoding="utf-8"?>
<svg version="1.1" xmlns:xlink="http://www.w3.org/1999/xlink" width="37px" height="37px" xmlns="http://www.w3.org/2000/svg">
  <g transform="matrix(1 0 0 1 -688 -247 )">
    <path d="M 706.5 247  C 716.86 247  725 255.14  725 265.5  C 725 275.86  716.86 284  706.5 284  C 696.14 284  688 275.86  688 265.5  C 688 255.14  696.14 247  706.5 247  Z " fill-rule="nonzero" fill="#ffffff" stroke="none" />
    <path d="M 706.5 247.5  C 716.58 247.5  724.5 255.42  724.5 265.5  C 724.5 275.58  716.58 283.5  706.5 283.5  C 696.42 283.5  688.5 275.58  688.5 265.5  C 688.5 255.42  696.42 247.5  706.5 247.5  Z " stroke-width="1" stroke="#999999" fill="none" />
  </g>
</svg>