<?xml version="1.0" encoding="utf-8"?>
<svg version="1.1" xmlns:xlink="http://www.w3.org/1999/xlink" width="18px" height="19px" xmlns="http://www.w3.org/2000/svg">
  <g transform="matrix(1 0 0 1 0 -8 )">
    <path d="M 17.9552556818182 14.5159505208333  C 17.9850852272727 14.9324001736111  18 15.3591579861111  18 15.7962239583333  C 18 16.7858072916667  17.6889204545455 17.5671657986111  17.0667613636364 18.1402994791667  C 16.4446022727273 18.7134331597222  15.6178977272727 19  14.5866477272727 19  L 3.41335227272725 19  C 2.38210227272725 19  1.55539772727275 18.7134331597222  0.933238636363626 18.1402994791667  C 0.311079545454504 17.5671657986111  0 16.7858072916667  0 15.7962239583333  C 0 15.3591579861111  0.0149147727272521 14.9324001736111  0.0447443181817562 14.5159505208333  C 0.074573863636374 14.0995008680556  0.134232954545382 13.6500651041667  0.223721590909008 13.1676432291667  C 0.313210227272748 12.6852213541667  0.426136363636374 12.2378472222222  0.5625 11.8255208333333  C 0.698863636363626 11.4131944444444  0.882102272727252 11.0111762152778  1.11221590909099 10.6194661458333  C 1.34232954545462 10.2277560763889  1.60653409090912 9.89377170138889  1.90482954545462 9.61751302083334  C 2.203125 9.34125434027778  2.56747159090912 9.12065972222222  2.99786931818176 8.95572916666667  C 3.4282670454545 8.79079861111111  3.90340909090912 8.70833333333333  4.42329545454538 8.70833333333333  C 4.5 8.70833333333333  4.67897727272725 8.79698350694444  4.96022727272725 8.97428385416667  C 5.24147727272725 9.15158420138889  5.55894886363637 9.34950086805556  5.91264204545462 9.56803385416666  C 6.26633522727275 9.78656684027778  6.7265625 9.98448350694444  7.29332386363637 10.1617838541667  C 7.86008522727275 10.3390842013889  8.42897727272725 10.427734375  9 10.427734375  C 9.57102272727275 10.427734375  10.1399147727273 10.3390842013889  10.7066761363636 10.1617838541667  C 11.2734375 9.98448350694444  11.7336647727273 9.78656684027778  12.0873579545454 9.56803385416666  C 12.4410511363636 9.34950086805556  12.7585227272727 9.15158420138889  13.0397727272727 8.97428385416667  C 13.3210227272727 8.79698350694444  13.5 8.70833333333333  13.5767045454546 8.70833333333333  C 14.0965909090909 8.70833333333333  14.5717329545455 8.79079861111111  15.0021306818182 8.95572916666667  C 15.4325284090909 9.12065972222222  15.796875 9.34125434027778  16.0951704545454 9.61751302083334  C 16.3934659090909 9.89377170138889  16.6576704545454 10.2277560763889  16.887784090909 10.6194661458333  C 17.1178977272727 11.0111762152778  17.3011363636364 11.4131944444444  17.4375 11.8255208333333  C 17.5738636363636 12.2378472222222  17.6867897727273 12.6852213541667  17.776278409091 13.1676432291667  C 17.8657670454546 13.6500651041667  17.9254261363636 14.0995008680556  17.9552556818182 14.5159505208333  Z M 12.4708806818182 1.3916015625  C 13.4296875 2.3193359375  13.909090909091 3.43880208333333  13.909090909091 4.75  C 13.909090909091 6.06119791666667  13.4296875 7.1806640625  12.4708806818182 8.1083984375  C 11.5120738636364 9.0361328125  10.3551136363636 9.5  9 9.5  C 7.64488636363637 9.5  6.48792613636363 9.0361328125  5.52911931818176 8.1083984375  C 4.5703125 7.1806640625  4.09090909090901 6.06119791666667  4.09090909090901 4.75  C 4.09090909090901 3.43880208333333  4.5703125 2.3193359375  5.52911931818176 1.3916015625  C 6.48792613636363 0.4638671875  7.64488636363637 0  9 0  C 10.3551136363636 0  11.5120738636364 0.4638671875  12.4708806818182 1.3916015625  Z " fill-rule="nonzero" fill="#999999" stroke="none" transform="matrix(1 0 0 1 0 8 )" />
  </g>
</svg>