<?xml version="1.0" encoding="utf-8"?>
<svg version="1.1" xmlns:xlink="http://www.w3.org/1999/xlink" width="18px" height="19px" xmlns="http://www.w3.org/2000/svg">
  <g transform="matrix(1 0 0 1 -92 -8 )">
    <path d="M 9 18.1517857142857  C 9.11538461538464 18.1517857142857  9.17307692307691 18.0952380952381  9.17307692307691 17.9821428571429  C 9.17307692307691 17.8690476190476  9.11538461538464 17.8125  9 17.8125  C 8.57451923076917 17.8125  8.20853365384619 17.6622953869048  7.90204326923072 17.3618861607143  C 7.59555288461536 17.0614769345238  7.44230769230774 16.7027529761905  7.44230769230774 16.2857142857143  C 7.44230769230774 16.1726190476191  7.38461538461536 16.1160714285714  7.26923076923072 16.1160714285714  C 7.15384615384619 16.1160714285714  7.09615384615392 16.1726190476191  7.09615384615392 16.2857142857143  C 7.09615384615392 16.8017113095238  7.28185096153845 17.2417224702381  7.65324519230774 17.6057477678571  C 8.02463942307691 17.9697730654762  8.47355769230762 18.1517857142857  9 18.1517857142857  Z M 17.015625 13.9955357142857  C 17.3112980769231 14.3206845238095  17.6394230769231 14.6316964285714  18 14.9285714285714  C 18 15.2961309523809  17.8629807692308 15.6142113095238  17.5889423076923 15.8828125  C 17.3149038461538 16.1514136904762  16.9903846153846 16.2857142857143  16.6153846153846 16.2857142857143  L 11.7692307692307 16.2857142857143  C 11.7692307692307 17.0349702380952  11.4987980769231 17.6746651785714  10.9579326923077 18.2047991071429  C 10.4170673076923 18.7349330357143  9.76442307692309 19  9 19  C 8.23557692307691 19  7.58293269230774 18.7349330357143  7.04206730769226 18.2047991071429  C 6.50120192307691 17.6746651785714  6.23076923076928 17.0349702380952  6.23076923076928 16.2857142857143  L 1.38461538461536 16.2857142857143  C 1.00961538461536 16.2857142857143  0.685096153846189 16.1514136904762  0.411057692307736 15.8828125  C 0.13701923076917 15.6142113095238  0 15.2961309523809  0 14.9285714285714  C 0.360576923076906 14.6316964285714  0.688701923076906 14.3206845238095  0.984375 13.9955357142857  C 1.28004807692309 13.6703869047619  1.58653846153845 13.248046875  1.90384615384608 12.728515625  C 2.22115384615381 12.208984375  2.48978365384619 11.6488095238095  2.70973557692309 11.0479910714286  C 2.9296875 10.4471726190476  3.10997596153845 9.71912202380953  3.25060096153845 8.86383928571428  C 3.39122596153845 8.00855654761904  3.46153846153845 7.08965773809524  3.46153846153845 6.10714285714286  C 3.46153846153845 5.03273809523809  3.88341346153845 4.03431919642857  4.72716346153845 3.11188616071428  C 5.57091346153845 2.189453125  6.67788461538464 1.62927827380952  8.04807692307691 1.43136160714286  C 7.99038461538464 1.29706101190476  7.96153846153845 1.15922619047619  7.96153846153845 1.01785714285714  C 7.96153846153845 0.735119047619048  8.0625 0.494791666666668  8.26442307692309 0.296875  C 8.46634615384619 0.0989583333333321  8.71153846153845 0  9 0  C 9.28846153846155 0  9.53365384615381 0.0989583333333321  9.73557692307691 0.296875  C 9.9375 0.494791666666668  10.0384615384615 0.735119047619048  10.0384615384615 1.01785714285714  C 10.0384615384615 1.15922619047619  10.0096153846155 1.29706101190476  9.95192307692309 1.43136160714286  C 11.3221153846154 1.62927827380952  12.4290865384615 2.189453125  13.2728365384615 3.11188616071428  C 14.1165865384615 4.03431919642857  14.5384615384615 5.03273809523809  14.5384615384615 6.10714285714286  C 14.5384615384615 7.08965773809524  14.6087740384615 8.00855654761904  14.7493990384615 8.86383928571428  C 14.8900240384615 9.71912202380953  15.0703125 10.4471726190476  15.2902644230769 11.0479910714286  C 15.5102163461538 11.6488095238095  15.7788461538462 12.208984375  16.0961538461539 12.728515625  C 16.4134615384615 13.248046875  16.719951923077 13.6703869047619  17.015625 13.9955357142857  Z " fill-rule="nonzero" fill="#999999" stroke="none" transform="matrix(1 0 0 1 92 8 )" />
  </g>
</svg>