<?xml version="1.0" encoding="utf-8"?>
<svg version="1.1" xmlns:xlink="http://www.w3.org/1999/xlink" width="747px" height="439px" xmlns="http://www.w3.org/2000/svg">
  <g transform="matrix(1 0 0 1 -176 -201 )">
    <path d="M 177 206  A 4 4 0 0 1 181 202 L 918 202  A 4 4 0 0 1 922 206 L 922 635  A 4 4 0 0 1 918 639 L 181 639  A 4 4 0 0 1 177 635 L 177 206  Z " fill-rule="nonzero" fill="#ffffff" stroke="none" fill-opacity="0" />
    <path d="M 176.5 206  A 4.5 4.5 0 0 1 181 201.5 L 918 201.5  A 4.5 4.5 0 0 1 922.5 206 L 922.5 635  A 4.5 4.5 0 0 1 918 639.5 L 181 639.5  A 4.5 4.5 0 0 1 176.5 635 L 176.5 206  Z " stroke-width="1" stroke-dasharray="9,4" stroke="#0099ff" fill="none" stroke-dashoffset="0.5" />
  </g>
</svg>