<?xml version="1.0" encoding="utf-8"?>
<svg version="1.1" xmlns:xlink="http://www.w3.org/1999/xlink" width="12px" height="12px" viewBox="335 195  12 12" xmlns="http://www.w3.org/2000/svg">
  <path d="M 341 195  C 344.36 195  347 197.64  347 201  C 347 204.36  344.36 207  341 207  C 337.64 207  335 204.36  335 201  C 335 197.64  337.64 195  341 195  Z " fill-rule="nonzero" fill="#ffffff" stroke="none" />
  <path d="M 341 195.5  C 344.08 195.5  346.5 197.92  346.5 201  C 346.5 204.08  344.08 206.5  341 206.5  C 337.92 206.5  335.5 204.08  335.5 201  C 335.5 197.92  337.92 195.5  341 195.5  Z " stroke-width="1" stroke="#999999" fill="none" />
  <path d="M 341 204  C 339.32 204  338 202.68  338 201  C 338 199.32  339.32 198  341 198  C 342.68 198  344 199.32  344 201  C 344 202.68  342.68 204  341 204  " fill-rule="nonzero" fill="#999999" stroke="none" />
</svg>