<?xml version="1.0" encoding="utf-8"?>
<svg version="1.1" xmlns:xlink="http://www.w3.org/1999/xlink" width="12px" height="12px" viewBox="335 223  12 12" xmlns="http://www.w3.org/2000/svg">
  <path d="M 341 223  C 344.36 223  347 225.64  347 229  C 347 232.36  344.36 235  341 235  C 337.64 235  335 232.36  335 229  C 335 225.64  337.64 223  341 223  Z " fill-rule="nonzero" fill="#ffffff" stroke="none" />
  <path d="M 341 223.5  C 344.08 223.5  346.5 225.92  346.5 229  C 346.5 232.08  344.08 234.5  341 234.5  C 337.92 234.5  335.5 232.08  335.5 229  C 335.5 225.92  337.92 223.5  341 223.5  Z " stroke-width="1" stroke="#999999" fill="none" />
  <path d="M 341 232  C 339.32 232  338 230.68  338 229  C 338 227.32  339.32 226  341 226  C 342.68 226  344 227.32  344 229  C 344 230.68  342.68 232  341 232  " fill-rule="nonzero" fill="#999999" stroke="none" />
</svg>