<?xml version="1.0" encoding="utf-8"?>
<svg version="1.1" xmlns:xlink="http://www.w3.org/1999/xlink" width="28px" height="30px" xmlns="http://www.w3.org/2000/svg">
  <g transform="matrix(1 0 0 1 -859 -23 )">
    <path d="M 14 28.6607142857143  C 14.1794871794872 28.6607142857143  14.2692307692307 28.5714285714286  14.2692307692307 28.3928571428571  C 14.2692307692307 28.2142857142857  14.1794871794872 28.125  14 28.125  C 13.338141025641 28.125  12.7688301282051 27.8878348214286  12.2920673076923 27.4135044642857  C 11.8153044871794 26.9391741071429  11.5769230769231 26.3727678571429  11.5769230769231 25.7142857142857  C 11.5769230769231 25.5357142857143  11.4871794871794 25.4464285714286  11.3076923076923 25.4464285714286  C 11.1282051282051 25.4464285714286  11.0384615384615 25.5357142857143  11.0384615384615 25.7142857142857  C 11.0384615384615 26.5290178571429  11.3273237179487 27.2237723214286  11.9050480769231 27.7985491071429  C 12.4827724358975 28.3733258928571  13.1810897435897 28.6607142857143  14 28.6607142857143  Z M 26.46875 22.0982142857143  C 26.9286858974359 22.6116071428571  27.4391025641025 23.1026785714286  28 23.5714285714286  C 28 24.1517857142857  27.786858974359 24.6540178571429  27.3605769230769 25.078125  C 26.9342948717949 25.5022321428571  26.4294871794872 25.7142857142857  25.8461538461538 25.7142857142857  L 18.3076923076923 25.7142857142857  C 18.3076923076923 26.8973214285714  17.8870192307693 27.9073660714286  17.0456730769231 28.7444196428571  C 16.2043269230769 29.5814732142857  15.1891025641025 30  14 30  C 12.8108974358975 30  11.7956730769231 29.5814732142857  10.9543269230769 28.7444196428571  C 10.1129807692307 27.9073660714286  9.69230769230774 26.8973214285714  9.69230769230774 25.7142857142857  L 2.15384615384619 25.7142857142857  C 1.57051282051282 25.7142857142857  1.06570512820508 25.5022321428571  0.639423076923094 25.078125  C 0.213141025640994 24.6540178571429  0 24.1517857142857  0 23.5714285714286  C 0.560897435897459 23.1026785714286  1.07131410256409 22.6116071428571  1.53125 22.0982142857143  C 1.99118589743591 21.5848214285714  2.46794871794873 20.91796875  2.96153846153845 20.09765625  C 3.45512820512818 19.27734375  3.87299679487182 18.3928571428571  4.21514423076928 17.4441964285714  C 4.55729166666663 16.4955357142857  4.83774038461536 15.3459821428571  5.05649038461536 13.9955357142857  C 5.27524038461536 12.6450892857143  5.38461538461536 11.1941964285714  5.38461538461536 9.64285714285714  C 5.38461538461536 7.94642857142857  6.04086538461536 6.36997767857143  7.35336538461536 4.91350446428571  C 8.66586538461536 3.45703125  10.3878205128206 2.57254464285714  12.5192307692307 2.26004464285714  C 12.4294871794872 2.04799107142857  12.3846153846154 1.83035714285714  12.3846153846154 1.60714285714286  C 12.3846153846154 1.16071428571428  12.5416666666666 0.781249999999998  12.8557692307693 0.46875  C 13.1698717948718 0.156250000000002  13.5512820512821 0  14 0  C 14.4487179487179 0  14.8301282051282 0.156250000000002  15.1442307692307 0.46875  C 15.4583333333334 0.781249999999998  15.6153846153846 1.16071428571428  15.6153846153846 1.60714285714286  C 15.6153846153846 1.83035714285714  15.5705128205128 2.04799107142857  15.4807692307693 2.26004464285714  C 17.6121794871794 2.57254464285714  19.3341346153846 3.45703125  20.6466346153846 4.91350446428571  C 21.9591346153846 6.36997767857143  22.6153846153846 7.94642857142857  22.6153846153846 9.64285714285714  C 22.6153846153846 11.1941964285714  22.7247596153846 12.6450892857143  22.9435096153846 13.9955357142857  C 23.1622596153846 15.3459821428571  23.4427083333334 16.4955357142857  23.7848557692307 17.4441964285714  C 24.1270032051282 18.3928571428571  24.5448717948718 19.27734375  25.0384615384615 20.09765625  C 25.5320512820513 20.91796875  26.0088141025641 21.5848214285714  26.46875 22.0982142857143  Z " fill-rule="nonzero" fill="#999999" stroke="none" transform="matrix(1 0 0 1 859 23 )" />
  </g>
</svg>