<?xml version="1.0" encoding="utf-8"?>
<svg version="1.1" xmlns:xlink="http://www.w3.org/1999/xlink" width="3px" height="15px" xmlns="http://www.w3.org/2000/svg">
  <g transform="matrix(1 0 0 1 -473 -203 )">
    <path d="M 2.78125 11.2073863636364  C 2.92708333333331 11.40625  3 11.6477272727273  3 11.9318181818182  L 3 13.9772727272727  C 3 14.2613636363636  2.92708333333331 14.5028409090909  2.78125 14.7017045454546  C 2.63541666666663 14.9005681818182  2.45833333333331 15  2.25 15  L 0.75 15  C 0.541666666666686 15  0.364583333333371 14.9005681818182  0.21875 14.7017045454546  C 0.0729166666666856 14.5028409090909  0 14.2613636363636  0 13.9772727272727  L 0 11.9318181818182  C 0 11.6477272727273  0.0729166666666856 11.40625  0.21875 11.2073863636364  C 0.364583333333371 11.0085227272727  0.541666666666686 10.9090909090909  0.75 10.9090909090909  L 2.25 10.9090909090909  C 2.45833333333331 10.9090909090909  2.63541666666663 11.0085227272727  2.78125 11.2073863636364  Z M 2.78125 5.75284090909093  C 2.92708333333331 5.95170454545456  3 6.19318181818181  3 6.47727272727272  L 3 8.52272727272728  C 3 8.80681818181819  2.92708333333331 9.04829545454544  2.78125 9.24715909090907  C 2.63541666666663 9.44602272727275  2.45833333333331 9.54545454545456  2.25 9.54545454545456  L 0.75 9.54545454545456  C 0.541666666666686 9.54545454545456  0.364583333333371 9.44602272727275  0.21875 9.24715909090907  C 0.0729166666666856 9.04829545454544  0 8.80681818181819  0 8.52272727272728  L 0 6.47727272727272  C 0 6.19318181818181  0.0729166666666856 5.95170454545456  0.21875 5.75284090909093  C 0.364583333333371 5.55397727272725  0.541666666666686 5.45454545454544  0.75 5.45454545454544  L 2.25 5.45454545454544  C 2.45833333333331 5.45454545454544  2.63541666666663 5.55397727272725  2.78125 5.75284090909093  Z M 2.78125 0.298295454545439  C 2.92708333333331 0.497159090909122  3 0.738636363636374  3 1.02272727272728  L 3 3.06818181818181  C 3 3.35227272727275  2.92708333333331 3.59375  2.78125 3.79261363636363  C 2.63541666666663 3.99147727272725  2.45833333333331 4.09090909090907  2.25 4.09090909090907  L 0.75 4.09090909090907  C 0.541666666666686 4.09090909090907  0.364583333333371 3.99147727272725  0.21875 3.79261363636363  C 0.0729166666666856 3.59375  0 3.35227272727275  0 3.06818181818181  L 0 1.02272727272728  C 0 0.738636363636374  0.0729166666666856 0.497159090909122  0.21875 0.298295454545439  C 0.364583333333371 0.099431818181813  0.541666666666686 0  0.75 0  L 2.25 0  C 2.45833333333331 0  2.63541666666663 0.099431818181813  2.78125 0.298295454545439  Z " fill-rule="nonzero" fill="#cccccc" stroke="none" transform="matrix(1 0 0 1 473 203 )" />
  </g>
</svg>