<?xml version="1.0" encoding="utf-8"?>
<svg version="1.1" xmlns:xlink="http://www.w3.org/1999/xlink" width="14px" height="14px" xmlns="http://www.w3.org/2000/svg">
  <g transform="matrix(1 0 0 1 -254 -760 )">
    <path d="M 8.08463541666669 11.5846354166667  C 8.13932291666669 11.5299479166667  8.16666666666669 11.4600694444443  8.16666666666669 11.375  L 8.16666666666669 9.625  C 8.16666666666669 9.53993055555566  8.13932291666669 9.47005208333326  8.08463541666669 9.41536458333326  C 8.02994791666669 9.36067708333326  7.96006944444446 9.33333333333326  7.875 9.33333333333326  L 6.125 9.33333333333326  C 6.03993055555554 9.33333333333326  5.97005208333331 9.36067708333326  5.91536458333331 9.41536458333326  C 5.86067708333331 9.47005208333326  5.83333333333331 9.53993055555566  5.83333333333331 9.625  L 5.83333333333331 11.375  C 5.83333333333331 11.4600694444443  5.86067708333331 11.5299479166667  5.91536458333331 11.5846354166667  C 5.97005208333331 11.6393229166667  6.03993055555554 11.6666666666667  6.125 11.6666666666667  L 7.875 11.6666666666667  C 7.96006944444446 11.6666666666667  8.02994791666669 11.6393229166667  8.08463541666669 11.5846354166667  Z M 10.3860677083333 5.98828125  C 10.4620225694445 5.76345486111109  10.5 5.51736111111109  10.5 5.25  C 10.5 4.71527777777783  10.3313802083333 4.22005208333326  9.994140625 3.76432291666674  C 9.65690104166669 3.30859375  9.23611111111109 2.95616319444434  8.73177083333331 2.70703125  C 8.22743055555554 2.45789930555566  7.7109375 2.33333333333326  7.18229166666669 2.33333333333326  C 5.70572916666669 2.33333333333326  4.57855902777777 2.98046875  3.80078125 4.27473958333326  C 3.70963541666669 4.42057291666674  3.73394097222223 4.54817708333326  3.87369791666669 4.65755208333326  L 5.07682291666669 5.56901041666674  C 5.11935763888891 5.60546875  5.17708333333331 5.62369791666674  5.25 5.62369791666674  C 5.34722222222223 5.62369791666674  5.42317708333331 5.58723958333326  5.47786458333331 5.51432291666674  C 5.79991319444446 5.10112847222217  6.06119791666669 4.82161458333326  6.26171875 4.67578125  C 6.46831597222223 4.52994791666674  6.72960069444446 4.45703125  7.04557291666669 4.45703125  C 7.33723958333331 4.45703125  7.59700520833331 4.53602430555566  7.82486979166669 4.69401041666674  C 8.052734375 4.85199652777783  8.16666666666669 5.03125  8.16666666666669 5.23177083333326  C 8.16666666666669 5.46267361111109  8.10590277777777 5.64800347222217  7.984375 5.78776041666674  C 7.86284722222223 5.92751736111109  7.65625 6.06423611111109  7.36458333333331 6.19791666666674  C 6.98177083333331 6.36805555555566  6.630859375 6.630859375  6.31184895833331 6.986328125  C 5.99283854166669 7.341796875  5.83333333333331 7.72309027777783  5.83333333333331 8.13020833333326  L 5.83333333333331 8.45833333333326  C 5.83333333333331 8.54340277777783  5.86067708333331 8.61328125  5.91536458333331 8.66796875  C 5.97005208333331 8.72265625  6.03993055555554 8.75  6.125 8.75  L 7.875 8.75  C 7.96006944444446 8.75  8.02994791666669 8.72265625  8.08463541666669 8.66796875  C 8.13932291666669 8.61328125  8.16666666666669 8.54340277777783  8.16666666666669 8.45833333333326  C 8.16666666666669 8.34288194444434  8.23198784722223 8.19249131944434  8.36263020833331 8.00716145833326  C 8.49327256944446 7.82183159722217  8.65885416666669 7.67144097222217  8.859375 7.55598958333326  C 9.05381944444446 7.44661458333326  9.20269097222223 7.36002604166674  9.30598958333331 7.29622395833326  C 9.40928819444446 7.232421875  9.54904513888891 7.12608506944434  9.72526041666669 6.97721354166674  C 9.90147569444446 6.82834201388891  10.0366753472222 6.68250868055566  10.130859375 6.53971354166674  C 10.2250434027778 6.39691840277783  10.3101128472222 6.21310763888891  10.3860677083333 5.98828125  Z M 13.0611979166667 3.486328125  C 13.6870659722222 4.55881076388891  14 5.73003472222217  14 7  C 14 8.26996527777783  13.6870659722222 9.44118923611109  13.0611979166667 10.513671875  C 12.4353298611111 11.5861545138889  11.5861545138889 12.4353298611111  10.513671875 13.0611979166667  C 9.44118923611109 13.6870659722222  8.26996527777777 14  7 14  C 5.73003472222223 14  4.55881076388891 13.6870659722222  3.486328125 13.0611979166667  C 2.41384548611109 12.4353298611111  1.56467013888889 11.5861545138889  0.938802083333343 10.513671875  C 0.312934027777771 9.44118923611109  0 8.26996527777783  0 7  C 0 5.73003472222217  0.312934027777771 4.55881076388891  0.938802083333343 3.486328125  C 1.56467013888889 2.41384548611109  2.41384548611109 1.56467013888891  3.486328125 0.938802083333258  C 4.55881076388891 0.312934027777828  5.73003472222223 0  7 0  C 8.26996527777777 0  9.44118923611109 0.312934027777828  10.513671875 0.938802083333258  C 11.5861545138889 1.56467013888891  12.4353298611111 2.41384548611109  13.0611979166667 3.486328125  Z " fill-rule="nonzero" fill="#999999" stroke="none" transform="matrix(1 0 0 1 254 760 )" />
  </g>
</svg>