<?xml version="1.0" encoding="utf-8"?>
<svg version="1.1" xmlns:xlink="http://www.w3.org/1999/xlink" width="5px" height="17px" xmlns="http://www.w3.org/2000/svg">
  <g transform="matrix(1 0 0 1 -365 -14 )">
    <path d="M 4.63541666666669 12.7017045454545  C 4.87847222222223 12.9270833333333  5 13.2007575757576  5 13.5227272727273  L 5 15.8409090909091  C 5 16.1628787878788  4.87847222222223 16.436553030303  4.63541666666669 16.6619318181818  C 4.39236111111109 16.8873106060606  4.09722222222223 17  3.75 17  L 1.25 17  C 0.902777777777771 17  0.607638888888914 16.8873106060606  0.364583333333314 16.6619318181818  C 0.121527777777771 16.436553030303  0 16.1628787878788  0 15.8409090909091  L 0 13.5227272727273  C 0 13.2007575757576  0.121527777777771 12.9270833333333  0.364583333333314 12.7017045454545  C 0.607638888888914 12.4763257575758  0.902777777777771 12.3636363636364  1.25 12.3636363636364  L 3.75 12.3636363636364  C 4.09722222222223 12.3636363636364  4.39236111111109 12.4763257575758  4.63541666666669 12.7017045454545  Z M 4.63541666666669 6.51988636363637  C 4.87847222222223 6.74526515151516  5 7.01893939393941  5 7.34090909090909  L 5 9.65909090909091  C 5 9.98106060606059  4.87847222222223 10.2547348484848  4.63541666666669 10.4801136363636  C 4.39236111111109 10.7054924242424  4.09722222222223 10.8181818181818  3.75 10.8181818181818  L 1.25 10.8181818181818  C 0.902777777777771 10.8181818181818  0.607638888888914 10.7054924242424  0.364583333333314 10.4801136363636  C 0.121527777777771 10.2547348484848  0 9.98106060606059  0 9.65909090909091  L 0 7.34090909090909  C 0 7.01893939393941  0.121527777777771 6.74526515151516  0.364583333333314 6.51988636363637  C 0.607638888888914 6.29450757575756  0.902777777777771 6.18181818181819  1.25 6.18181818181819  L 3.75 6.18181818181819  C 4.09722222222223 6.18181818181819  4.39236111111109 6.29450757575756  4.63541666666669 6.51988636363637  Z M 4.63541666666669 0.338068181818187  C 4.87847222222223 0.563446969696969  5 0.837121212121218  5 1.15909090909091  L 5 3.47727272727272  C 5 3.79924242424244  4.87847222222223 4.07291666666666  4.63541666666669 4.29829545454547  C 4.39236111111109 4.52367424242425  4.09722222222223 4.63636363636363  3.75 4.63636363636363  L 1.25 4.63636363636363  C 0.902777777777771 4.63636363636363  0.607638888888914 4.52367424242425  0.364583333333314 4.29829545454547  C 0.121527777777771 4.07291666666666  0 3.79924242424244  0 3.47727272727272  L 0 1.15909090909091  C 0 0.837121212121218  0.121527777777771 0.563446969696969  0.364583333333314 0.338068181818187  C 0.607638888888914 0.112689393939405  0.902777777777771 0  1.25 0  L 3.75 0  C 4.09722222222223 0  4.39236111111109 0.112689393939405  4.63541666666669 0.338068181818187  Z " fill-rule="nonzero" fill="#999999" stroke="none" transform="matrix(1 0 0 1 365 14 )" />
  </g>
</svg>