<?xml version="1.0" encoding="utf-8"?>
<svg version="1.1" xmlns:xlink="http://www.w3.org/1999/xlink" width="50px" height="46px" xmlns="http://www.w3.org/2000/svg">
  <g transform="matrix(1 0 0 1 -100 -124 )">
    <path d="M 28.2989977728285 38.6604567307692  C 28.4753155159614 38.4853766025641  28.5634743875278 38.2688301282051  28.5634743875278 38.0108173076923  L 28.5634743875278 32.7584134615385  C 28.5634743875278 32.5004006410256  28.4753155159614 32.2838541666667  28.2989977728285 32.1087740384615  C 28.1226800296956 31.9336939102564  27.9138827023014 31.8461538461538  27.6726057906459 31.8461538461538  L 22.3273942093541 31.8461538461538  C 22.0861172976986 31.8461538461538  21.8773199703044 31.9336939102564  21.7010022271715 32.1087740384615  C 21.5246844840386 32.2838541666667  21.4365256124722 32.5004006410256  21.4365256124722 32.7584134615385  L 21.4365256124722 38.0108173076923  C 21.4365256124722 38.2688301282051  21.5246844840386 38.4853766025641  21.7010022271715 38.6604567307692  C 21.8773199703044 38.8355368589744  22.0861172976986 38.9230769230769  22.3273942093541 38.9230769230769  L 27.6726057906459 38.9230769230769  C 27.9138827023014 38.9230769230769  28.1226800296956 38.8355368589744  28.2989977728285 38.6604567307692  Z M 28.2154788418708 28.1280048076923  C 28.3917965850037 28.0082131410256  28.4892353377877 27.8561698717949  28.5077951002227 27.671875  L 29.0089086859688 14.9831730769231  C 29.0089086859688 14.7620192307692  28.9161098737936 14.5869391025641  28.7305122494432 14.4579326923077  C 28.4892353377877 14.2552083333333  28.2665181885672 14.1538461538462  28.0623608017817 14.1538461538462  L 21.9376391982183 14.1538461538462  C 21.7334818114328 14.1538461538462  21.5107646622123 14.2552083333333  21.2694877505568 14.4579326923077  C 21.0838901262064 14.5869391025641  20.9910913140312 14.7804487179487  20.9910913140312 15.0384615384615  L 21.4643652561247 27.671875  C 21.4643652561247 27.8561698717949  21.5571640682999 28.0082131410256  21.7427616926503 28.1280048076923  C 21.9283593170007 28.247796474359  22.1510764662212 28.3076923076923  22.4109131403118 28.3076923076923  L 27.5612472160356 28.3076923076923  C 27.8210838901262 28.3076923076923  28.0391610987379 28.247796474359  28.2154788418708 28.1280048076923  Z M 26.8095768374165 0.497596153846155  C 27.3663697104677 0.829326923076923  27.8025241276912 1.28084935897436  28.1180400890869 1.85216346153846  L 49.4988864142539 40.7752403846154  C 50.1484780994803 41.9362980769231  50.1299183370453 43.0973557692308  49.4432071269488 44.2584134615385  C 49.1276911655531 44.7928685897436  48.6961766889384 45.2167467948718  48.1486636971047 45.5300480769231  C 47.601150705271 45.8433493589744  47.0118782479584 46  46.380846325167 46  L 3.61915367483296 46  C 2.98812175204157 46  2.39884929472903 45.8433493589744  1.85133630289532 45.5300480769231  C 1.30382331106162 45.2167467948718  0.872308834446919 44.7928685897436  0.556792873051225 44.2584134615385  C -0.129918337045286 43.0973557692308  -0.148478099480327 41.9362980769231  0.501113585746102 40.7752403846154  L 21.8819599109131 1.85216346153846  C 22.1974758723088 1.28084935897436  22.6336302895323 0.829326923076923  23.1904231625835 0.497596153846155  C 23.7472160356347 0.165865384615387  24.3504083147736 0  25 0  C 25.6495916852264 0  26.2527839643653 0.165865384615387  26.8095768374165 0.497596153846155  Z " fill-rule="nonzero" fill="#ff0000" stroke="none" transform="matrix(1 0 0 1 100 124 )" />
  </g>
</svg>