<?xml version="1.0" encoding="utf-8"?>
<svg version="1.1" xmlns:xlink="http://www.w3.org/1999/xlink" width="16px" height="12px" xmlns="http://www.w3.org/2000/svg">
  <g transform="matrix(1 0 0 1 -118 -19 )">
    <path d="M 7.46188340807175 9  L 7.96412556053812 9  L 9.00448430493273 8.01136363636364  L 7.64125560538117 6.71590909090909  L 6.60089686098655 7.70454545454546  L 6.60089686098655 8.18181818181818  L 7.46188340807175 8.18181818181818  L 7.46188340807175 9  Z M 11.9013452914798 3.14488636363636  C 12.0029895366218 3.04829545454545  12.0059790732436 2.95454545454545  11.9103139013453 2.86363636363636  C 11.8146487294469 2.77272727272727  11.7159940209268 2.77556818181818  11.6143497757848 2.87215909090909  L 8.47533632286996 5.85511363636364  C 8.37369207772795 5.95170454545454  8.37070254110613 6.04545454545454  8.46636771300448 6.13636363636364  C 8.56203288490284 6.22727272727273  8.66068759342302 6.22443181818182  8.76233183856502 6.12784090909091  L 11.9013452914798 3.14488636363636  Z M 12.4484304932735 7.67897727272727  C 12.5680119581465 7.72443181818182  12.627802690583 7.80681818181818  12.627802690583 7.92613636363636  L 12.627802690583 9.54545454545454  C 12.627802690583 10.2215909090909  12.3751868460389 10.7997159090909  11.8699551569507 11.2798295454545  C 11.3647234678625 11.7599431818182  10.7563527653214 12  10.0448430493274 12  L 2.58295964125561 12  C 1.87144992526158 12  1.26307922272048 11.7599431818182  0.757847533632287 11.2798295454545  C 0.252615844544096 10.7997159090909  0 10.2215909090909  0 9.54545454545454  L 0 2.45454545454546  C 0 1.77840909090909  0.252615844544096 1.20028409090909  0.757847533632287 0.720170454545455  C 1.26307922272048 0.240056818181817  1.87144992526158 0  2.58295964125561 0  L 10.0448430493274 0  C 10.4215246636771 0  10.7713004484305 0.0710227272727266  11.0941704035874 0.213068181818181  C 11.1838565022422 0.252840909090908  11.237668161435 0.318181818181818  11.2556053811659 0.409090909090909  C 11.2735426008969 0.505681818181818  11.2466367713004 0.588068181818181  11.1748878923767 0.65625  L 10.7354260089686 1.07386363636364  C 10.6517189835575 1.15340909090909  10.5560538116592 1.17613636363636  10.4484304932735 1.14204545454546  C 10.3109118086697 1.10795454545454  10.1763826606876 1.09090909090909  10.0448430493274 1.09090909090909  L 2.58295964125561 1.09090909090909  C 2.18834080717489 1.09090909090909  1.85052316890882 1.22443181818182  1.5695067264574 1.49147727272727  C 1.28849028400598 1.75852272727273  1.14798206278027 2.07954545454546  1.14798206278027 2.45454545454546  L 1.14798206278027 9.54545454545454  C 1.14798206278027 9.92045454545454  1.28849028400598 10.2414772727273  1.5695067264574 10.5085227272727  C 1.85052316890882 10.7755681818182  2.18834080717489 10.9090909090909  2.58295964125561 10.9090909090909  L 10.0448430493274 10.9090909090909  C 10.4394618834081 10.9090909090909  10.7772795216741 10.7755681818182  11.0582959641256 10.5085227272727  C 11.339312406577 10.2414772727273  11.4798206278027 9.92045454545454  11.4798206278027 9.54545454545454  L 11.4798206278027 8.47159090909091  C 11.4798206278027 8.39772727272727  11.5067264573991 8.33522727272727  11.5605381165919 8.28409090909091  L 12.1345291479821 7.73863636363636  C 12.2242152466368 7.65340909090909  12.3288490284006 7.63352272727273  12.4484304932735 7.67897727272727  Z M 5.73991031390134 7.36363636363636  L 11.7668161434978 1.63636363636364  L 14.3497757847534 4.09090909090909  L 8.32286995515695 9.81818181818182  L 5.73991031390134 9.81818181818182  L 5.73991031390134 7.36363636363636  Z M 16 2.18181818181818  C 16 2.40909090909091  15.9162929745889 2.60227272727273  15.7488789237668 2.76136363636364  L 14.9237668161435 3.54545454545454  L 12.3408071748879 1.09090909090909  L 13.1659192825112 0.306818181818181  C 13.3333333333333 0.147727272727272  13.5366218236173 0.0681818181818188  13.7757847533632 0.0681818181818188  C 14.0149476831091 0.0681818181818188  14.2182361733931 0.147727272727272  14.3856502242152 0.306818181818181  L 15.7488789237668 1.60227272727273  C 15.9162929745889 1.76136363636363  16 1.95454545454545  16 2.18181818181818  Z " fill-rule="nonzero" fill="#000000" stroke="none" transform="matrix(1 0 0 1 118 19 )" />
  </g>
</svg>