<?xml version="1.0" encoding="utf-8"?>
<svg version="1.1" xmlns:xlink="http://www.w3.org/1999/xlink" width="12px" height="12px" xmlns="http://www.w3.org/2000/svg">
  <g transform="matrix(1 0 0 1 -1011 -169 )">
    <path d="M 1017 169  C 1020.36 169  1023 171.64  1023 175  C 1023 178.36  1020.36 181  1017 181  C 1013.64 181  1011 178.36  1011 175  C 1011 171.64  1013.64 169  1017 169  Z " fill-rule="nonzero" fill="#ff0000" stroke="none" />
    <path d="M 1017 169.5  C 1020.08 169.5  1022.5 171.92  1022.5 175  C 1022.5 178.08  1020.08 180.5  1017 180.5  C 1013.92 180.5  1011.5 178.08  1011.5 175  C 1011.5 171.92  1013.92 169.5  1017 169.5  Z " stroke-width="1" stroke="#ffffff" fill="none" />
  </g>
</svg>