<?xml version="1.0" encoding="utf-8"?>
<svg version="1.1" xmlns:xlink="http://www.w3.org/1999/xlink" width="19px" height="19px" xmlns="http://www.w3.org/2000/svg">
  <g transform="matrix(1 0 0 1 -831 -146 )">
    <path d="M 18.1118980169972 0  C 18.4886685552408 0  18.7533050047215 0.175426136363626  18.905807365439 0.526278409090907  C 19.0583097261567 0.895123106060595  18.9955146364495 1.20999053030303  18.7174220963173 1.47088068181819  L 12 8.12357954545456  L 12 18.1363636363636  C 12.0835694050992 18.5142045454546  11.9086402266289 18.7795928030303  11.5587818696883 18.9325284090909  C 11.4421624173749 18.977509469697  11.3300283286119 19  11.2223796033994 19  C 10.9801699716713 19  10.778328611898 18.9145359848485  10.6168555240794 18.7436079545454  L 7.17209631728042 15.2890625  C 7.00165250236068 15.118134469697  6.91643059490082 14.9157196969697  6.91643059490082 14.6818181818182  L 6.91643059490082 8.12357954545456  L 0.28257790368275 1.47088068181819  C 0.0044853635505433 1.20999053030303  -0.0583097261567218 0.895123106060595  0.0941926345609545 0.526278409090907  C 0.246694995278517 0.175426136363626  0.511331444759207 0  0.888101983002798 0  L 18.1118980169972 0  Z " fill-rule="nonzero" fill="#cccccc" stroke="none" transform="matrix(1 0 0 1 831 146 )" />
  </g>
</svg>