<?xml version="1.0" encoding="utf-8"?>
<svg version="1.1" xmlns:xlink="http://www.w3.org/1999/xlink" width="19px" height="19px" xmlns="http://www.w3.org/2000/svg">
  <g transform="matrix(1 0 0 1 -872 -146 )">
    <path d="M 12.6882453151618 16.3811383928571  C 12.7529812606474 16.4447544642857  12.7853492333901 16.5260416666667  12.7853492333901 16.625  L 12.7853492333901 18.6607142857143  C 12.7853492333901 18.7596726190476  12.7529812606474 18.8409598214286  12.6882453151618 18.9045758928571  C 12.6235093696763 18.9681919642857  12.5407912171115 19  12.4400908574673 19  L 9.6780238500852 19  C 9.57732349044102 19  9.49460533787624 18.9681919642857  9.42986939239074 18.9045758928571  C 9.36513344690513 18.8409598214286  9.33276547416244 18.7596726190476  9.33276547416244 18.6607142857143  L 9.33276547416244 16.625  C 9.33276547416244 16.5260416666667  9.36513344690513 16.4447544642857  9.42986939239074 16.3811383928571  C 9.49460533787624 16.3175223214286  9.57732349044102 16.2857142857143  9.6780238500852 16.2857142857143  L 12.4400908574673 16.2857142857143  C 12.5407912171115 16.2857142857143  12.6235093696763 16.3175223214286  12.6882453151618 16.3811383928571  Z M 7.50936967632026 15.0239955357143  C 7.57410562180576 15.0876116071429  7.60647359454856 15.1688988095238  7.60647359454856 15.2678571428571  C 7.60647359454856 15.3526785714286  7.57050918038988 15.4375  7.49858035207274 15.5223214285714  L 4.05678591709261 18.9045758928571  C 3.98485708877536 18.9681919642857  3.90213893621046 19  3.80863145939804 19  C 3.72231686541738 19  3.6395987128526 18.9681919642857  3.56047700170359 18.9045758928571  L 0.107893242475825 15.51171875  C 0 15.3986235119048  -0.0251750899110448 15.2749255952381  0.0323679727428043 15.140625  C 0.0899110353965398 14.999255952381  0.197804277872365 14.9285714285714  0.356047700170393 14.9285714285714  L 2.42759795570703 14.9285714285714  L 2.42759795570703 0.339285714285722  C 2.42759795570703 0.24032738095238  2.45996592844972 0.159040178571416  2.52470187393521 0.0954241071428612  C 2.58943781942082 0.0318080357142776  2.6721559719856 0  2.77285633162978 0  L 4.84440658716642 0  C 4.94510694681048 0  5.02782509937538 0.0318080357142776  5.09256104486087 0.0954241071428612  C 5.15729699034637 0.159040178571416  5.18966496308917 0.24032738095238  5.18966496308917 0.339285714285722  L 5.18966496308917 14.9285714285714  L 7.26121521862581 14.9285714285714  C 7.36191557826987 14.9285714285714  7.44463373083477 14.9603794642857  7.50936967632026 15.0239955357143  Z M 14.7597955706984 10.9525669642857  C 14.824531516184 11.0161830357143  14.8568994889267 11.0974702380952  14.8568994889267 11.1964285714286  L 14.8568994889267 13.2321428571429  C 14.8568994889267 13.3311011904762  14.824531516184 13.4123883928571  14.7597955706984 13.4760044642857  C 14.6950596252129 13.5396205357143  14.6123414726482 13.5714285714286  14.511641113004 13.5714285714286  L 9.6780238500852 13.5714285714286  C 9.57732349044102 13.5714285714286  9.49460533787624 13.5396205357143  9.42986939239074 13.4760044642857  C 9.36513344690513 13.4123883928571  9.33276547416244 13.3311011904762  9.33276547416244 13.2321428571429  L 9.33276547416244 11.1964285714286  C 9.33276547416244 11.0974702380952  9.36513344690513 11.0161830357143  9.42986939239074 10.9525669642857  C 9.49460533787624 10.8889508928571  9.57732349044102 10.8571428571429  9.6780238500852 10.8571428571429  L 14.511641113004 10.8571428571429  C 14.6123414726482 10.8571428571429  14.6950596252129 10.8889508928571  14.7597955706984 10.9525669642857  Z M 16.8313458262351 5.52399553571428  C 16.8960817717206 5.58761160714286  16.9284497444634 5.6688988095238  16.9284497444634 5.76785714285714  L 16.9284497444634 7.80357142857142  C 16.9284497444634 7.90252976190476  16.8960817717206 7.98381696428572  16.8313458262351 8.04743303571428  C 16.7666098807496 8.11104910714286  16.6838917281848 8.14285714285714  16.5831913685406 8.14285714285714  L 9.6780238500852 8.14285714285714  C 9.57732349044102 8.14285714285714  9.49460533787624 8.11104910714286  9.42986939239074 8.04743303571428  C 9.36513344690513 7.98381696428572  9.33276547416244 7.90252976190476  9.33276547416244 7.80357142857142  L 9.33276547416244 5.76785714285714  C 9.33276547416244 5.6688988095238  9.36513344690513 5.58761160714286  9.42986939239074 5.52399553571428  C 9.49460533787624 5.46037946428572  9.57732349044102 5.42857142857142  9.6780238500852 5.42857142857142  L 16.5831913685406 5.42857142857142  C 16.6838917281848 5.42857142857142  16.7666098807496 5.46037946428572  16.8313458262351 5.52399553571428  Z M 18.9028960817717 0.0954241071428612  C 18.9676320272572 0.159040178571416  19 0.24032738095238  19 0.339285714285722  L 19 2.375  C 19 2.47395833333334  18.9676320272572 2.55524553571428  18.9028960817717 2.61886160714286  C 18.8381601362862 2.68247767857142  18.7554419837214 2.71428571428572  18.6547416240772 2.71428571428572  L 9.6780238500852 2.71428571428572  C 9.57732349044102 2.71428571428572  9.49460533787624 2.68247767857142  9.42986939239074 2.61886160714286  C 9.36513344690513 2.55524553571428  9.33276547416244 2.47395833333334  9.33276547416244 2.375  L 9.33276547416244 0.339285714285722  C 9.33276547416244 0.24032738095238  9.36513344690513 0.159040178571416  9.42986939239074 0.0954241071428612  C 9.49460533787624 0.0318080357142776  9.57732349044102 0  9.6780238500852 0  L 18.6547416240772 0  C 18.7554419837214 0  18.8381601362862 0.0318080357142776  18.9028960817717 0.0954241071428612  Z " fill-rule="nonzero" fill="#cccccc" stroke="none" transform="matrix(1 0 0 1 872 146 )" />
  </g>
</svg>