<?xml version="1.0" encoding="utf-8"?>
<svg version="1.1" xmlns:xlink="http://www.w3.org/1999/xlink" width="13px" height="13px" xmlns="http://www.w3.org/2000/svg">
  <g transform="matrix(1 0 0 1 -216 -150 )">
    <path d="M 222.5 150  C 226.14 150  229 152.86  229 156.5  C 229 160.14  226.14 163  222.5 163  C 218.86 163  216 160.14  216 156.5  C 216 152.86  218.86 150  222.5 150  Z " fill-rule="nonzero" fill="#999999" stroke="none" />
    <path d="M 222.5 150.5  C 225.86 150.5  228.5 153.14  228.5 156.5  C 228.5 159.86  225.86 162.5  222.5 162.5  C 219.14 162.5  216.5 159.86  216.5 156.5  C 216.5 153.14  219.14 150.5  222.5 150.5  Z " stroke-width="1" stroke="#ffffff" fill="none" />
  </g>
</svg>