<?xml version="1.0" encoding="utf-8"?>
<svg version="1.1" xmlns:xlink="http://www.w3.org/1999/xlink" width="5px" height="19px" xmlns="http://www.w3.org/2000/svg">
  <g transform="matrix(1 0 0 1 -1129 -193 )">
    <path d="M 4.63541666666663 14.1960227272727  C 4.87847222222217 14.4479166666667  5 14.7537878787879  5 15.1136363636364  L 5 17.7045454545455  C 5 18.0643939393939  4.87847222222217 18.3702651515151  4.63541666666663 18.6221590909091  C 4.39236111111109 18.874053030303  4.09722222222217 19  3.75 19  L 1.25 19  C 0.902777777777828 19  0.607638888888914 18.874053030303  0.364583333333371 18.6221590909091  C 0.121527777777828 18.3702651515151  0 18.0643939393939  0 17.7045454545455  L 0 15.1136363636364  C 0 14.7537878787879  0.121527777777828 14.4479166666667  0.364583333333371 14.1960227272727  C 0.607638888888914 13.9441287878788  0.902777777777828 13.8181818181818  1.25 13.8181818181818  L 3.75 13.8181818181818  C 4.09722222222217 13.8181818181818  4.39236111111109 13.9441287878788  4.63541666666663 14.1960227272727  Z M 4.63541666666663 7.28693181818182  C 4.87847222222217 7.53882575757575  5 7.84469696969697  5 8.20454545454545  L 5 10.7954545454545  C 5 11.155303030303  4.87847222222217 11.4611742424242  4.63541666666663 11.7130681818182  C 4.39236111111109 11.9649621212121  4.09722222222217 12.0909090909091  3.75 12.0909090909091  L 1.25 12.0909090909091  C 0.902777777777828 12.0909090909091  0.607638888888914 11.9649621212121  0.364583333333371 11.7130681818182  C 0.121527777777828 11.4611742424242  0 11.155303030303  0 10.7954545454545  L 0 8.20454545454545  C 0 7.84469696969697  0.121527777777828 7.53882575757575  0.364583333333371 7.28693181818182  C 0.607638888888914 7.03503787878788  0.902777777777828 6.90909090909091  1.25 6.90909090909091  L 3.75 6.90909090909091  C 4.09722222222217 6.90909090909091  4.39236111111109 7.03503787878788  4.63541666666663 7.28693181818182  Z M 4.63541666666663 0.37784090909091  C 4.87847222222217 0.629734848484848  5 0.935606060606061  5 1.29545454545455  L 5 3.88636363636364  C 5 4.24621212121212  4.87847222222217 4.55208333333333  4.63541666666663 4.80397727272727  C 4.39236111111109 5.05587121212121  4.09722222222217 5.18181818181818  3.75 5.18181818181818  L 1.25 5.18181818181818  C 0.902777777777828 5.18181818181818  0.607638888888914 5.05587121212121  0.364583333333371 4.80397727272727  C 0.121527777777828 4.55208333333333  0 4.24621212121212  0 3.88636363636364  L 0 1.29545454545455  C 0 0.935606060606061  0.121527777777828 0.629734848484848  0.364583333333371 0.37784090909091  C 0.607638888888914 0.125946969696969  0.902777777777828 0  1.25 0  L 3.75 0  C 4.09722222222217 0  4.39236111111109 0.125946969696969  4.63541666666663 0.37784090909091  Z " fill-rule="nonzero" fill="#cccccc" stroke="none" transform="matrix(1 0 0 1 1129 193 )" />
  </g>
</svg>