<?xml version="1.0" encoding="utf-8"?>
<svg version="1.1" xmlns:xlink="http://www.w3.org/1999/xlink" width="15px" height="15px" xmlns="http://www.w3.org/2000/svg">
  <g transform="matrix(1 0 0 1 -838 -483 )">
    <path d="M 14.6437740693196 6.20026972353338  C 14.8812580231065 6.46325016857719  15 6.77006068779502  15 7.12070128118677  C 15 7.47808496291299  14.8812580231065 7.78152393796358  14.6437740693196 8.0310182063385  L 8.37612323491658 14.6257585974377  C 8.12580231065465 14.8752528658126  7.83376123234916 15  7.5 15  C 7.15982028241331 15  6.87098844672653 14.8752528658126  6.63350449293966 14.6257585974377  L 0.365853658536594 8.0310182063385  C 0.121951219512198 7.78826702629806  0 7.48482805124746  0 7.12070128118677  C 0 6.76331759946055  0.121951219512198 6.45650708024277  0.365853658536594 6.20026972353338  L 1.0783055198973 5.44167228590692  C 1.32862644415923 5.192178017532  1.62066752246471 5.06743088334457  1.95442875481388 5.06743088334457  C 2.29460847240057 5.06743088334457  2.58344030808735 5.192178017532  2.82092426187421 5.44167228590692  L 5.65147625160466 8.41537424140256  L 5.65147625160466 1.29467296021579  C 5.65147625160466 0.94403236682399  5.77342747111686 0.64059339177345  6.01732991014126 0.384356035064059  C 6.26123234916565 0.128118678354667  6.55006418485243 0  6.88382541720159 0  L 8.11617458279841 0  C 8.44993581514768 0  8.73876765083446 0.128118678354667  8.98267008985874 0.384356035064059  C 9.22657252888314 0.64059339177345  9.34852374839534 0.94403236682399  9.34852374839534 1.29467296021579  L 9.34852374839534 8.41537424140256  L 12.1790757381258 5.44167228590692  C 12.4165596919127 5.192178017532  12.7053915275994 5.06743088334457  13.0455712451861 5.06743088334457  C 13.3793324775353 5.06743088334457  13.6713735558408 5.192178017532  13.9216944801027 5.44167228590692  L 14.6437740693196 6.20026972353338  Z " fill-rule="nonzero" fill="#cccccc" stroke="none" transform="matrix(1 0 0 1 838 483 )" />
  </g>
</svg>