<?xml version="1.0" encoding="utf-8"?>
<svg version="1.1" xmlns:xlink="http://www.w3.org/1999/xlink" width="15px" height="14px" xmlns="http://www.w3.org/2000/svg">
  <g transform="matrix(1 0 0 1 -838 -442 )">
    <path d="M 14.6437740693196 6.54347826086956  C 14.8812580231065 6.79076086956519  15 7.07925724637681  15 7.40896739130437  C 15 7.73233695652175  14.8812580231065 8.01766304347825  14.6437740693196 8.26494565217394  L 13.9216944801027 8.97826086956519  C 13.6777920410783 9.21920289855075  13.3857509627728 9.3396739130435  13.0455712451861 9.3396739130435  C 12.698973042362 9.3396739130435  12.4101412066752 9.21920289855075  12.1790757381258 8.97826086956519  L 9.34852374839534 6.1915760869565  L 9.34852374839534 12.8872282608696  C 9.34852374839534 13.2169384057971  9.22817715019255 13.4848278985507  8.98748395378686 13.6908967391304  C 8.74679075738129 13.8969655797101  8.4563543003851 14  8.11617458279841 14  L 6.88382541720159 14  C 6.5436456996149 14  6.25320924261871 13.8969655797101  6.01251604621314 13.6908967391304  C 5.77182284980745 13.4848278985507  5.65147625160466 13.2169384057971  5.65147625160466 12.8872282608696  L 5.65147625160466 6.1915760869565  L 2.82092426187421 8.97826086956519  C 2.58985879332477 9.21920289855075  2.30102695763799 9.3396739130435  1.95442875481388 9.3396739130435  C 1.60783055198976 9.3396739130435  1.31899871630299 9.21920289855075  1.08793324775354 8.97826086956519  L 0.365853658536594 8.26494565217394  C 0.121951219512198 8.02400362318838  0 7.73867753623188  0 7.40896739130437  C 0 7.07291666666669  0.121951219512198 6.78442028985506  0.365853658536594 6.54347826086956  L 6.63350449293966 0.351902173913061  C 6.85815147625158 0.117300724637687  7.14698331193836 0  7.5 0  C 7.84659820282411 0  8.1386392811296 0.117300724637687  8.37612323491658 0.351902173913061  L 14.6437740693196 6.54347826086956  Z " fill-rule="nonzero" fill="#cccccc" stroke="none" transform="matrix(1 0 0 1 838 442 )" />
  </g>
</svg>