<?xml version="1.0" encoding="utf-8"?>
<svg version="1.1" xmlns:xlink="http://www.w3.org/1999/xlink" width="17px" height="18px" xmlns="http://www.w3.org/2000/svg">
  <g transform="matrix(1 0 0 1 -837 -525 )">
    <path d="M 6.07315340909093 14.89453125  C 6.14559659090907 14.82421875  6.18181818181819 14.734375  6.18181818181819 14.625  L 6.18181818181819 6.375  C 6.18181818181819 6.265625  6.14559659090907 6.17578125  6.07315340909093 6.10546875  C 6.00071022727275 6.03515625  5.90814393939394 6  5.79545454545456 6  L 5.02272727272725 6  C 4.91003787878788 6  4.81747159090907 6.03515625  4.74502840909093 6.10546875  C 4.67258522727275 6.17578125  4.63636363636363 6.265625  4.63636363636363 6.375  L 4.63636363636363 14.625  C 4.63636363636363 14.734375  4.67258522727275 14.82421875  4.74502840909093 14.89453125  C 4.81747159090907 14.96484375  4.91003787878788 15  5.02272727272725 15  L 5.79545454545456 15  C 5.90814393939394 15  6.00071022727275 14.96484375  6.07315340909093 14.89453125  Z M 9.1640625 14.89453125  C 9.23650568181819 14.82421875  9.27272727272725 14.734375  9.27272727272725 14.625  L 9.27272727272725 6.375  C 9.27272727272725 6.265625  9.23650568181819 6.17578125  9.1640625 6.10546875  C 9.09161931818181 6.03515625  8.999053030303 6  8.88636363636363 6  L 8.11363636363637 6  C 8.000946969697 6  7.90838068181819 6.03515625  7.8359375 6.10546875  C 7.76349431818181 6.17578125  7.72727272727275 6.265625  7.72727272727275 6.375  L 7.72727272727275 14.625  C 7.72727272727275 14.734375  7.76349431818181 14.82421875  7.8359375 14.89453125  C 7.90838068181819 14.96484375  8.000946969697 15  8.11363636363637 15  L 8.88636363636363 15  C 8.999053030303 15  9.09161931818181 14.96484375  9.1640625 14.89453125  Z M 12.2549715909091 14.89453125  C 12.3274147727273 14.82421875  12.3636363636364 14.734375  12.3636363636364 14.625  L 12.3636363636364 6.375  C 12.3636363636364 6.265625  12.3274147727273 6.17578125  12.2549715909091 6.10546875  C 12.1825284090909 6.03515625  12.0899621212121 6  11.9772727272727 6  L 11.2045454545454 6  C 11.0918560606061 6  10.9992897727273 6.03515625  10.9268465909091 6.10546875  C 10.8544034090909 6.17578125  10.8181818181818 6.265625  10.8181818181818 6.375  L 10.8181818181818 14.625  C 10.8181818181818 14.734375  10.8544034090909 14.82421875  10.9268465909091 14.89453125  C 10.9992897727273 14.96484375  11.0918560606061 15  11.2045454545454 15  L 11.9772727272727 15  C 12.0899621212121 15  12.1825284090909 14.96484375  12.2549715909091 14.89453125  Z M 6.38707386363637 1.62890625  L 5.79545454545456 3  L 11.2045454545454 3  L 10.625 1.62890625  C 10.5686553030303 1.55859375  10.5002367424242 1.515625  10.4197443181818 1.5  L 6.59232954545456 1.5  C 6.51183712121212 1.515625  6.44341856060606 1.55859375  6.38707386363637 1.62890625  Z M 16.8913352272727 3.10546875  C 16.9637784090909 3.17578125  17 3.265625  17 3.375  L 17 4.125  C 17 4.234375  16.9637784090909 4.32421875  16.8913352272727 4.39453125  C 16.8188920454545 4.46484375  16.7263257575758 4.5  16.6136363636364 4.5  L 15.4545454545454 4.5  L 15.4545454545454 15.609375  C 15.4545454545454 16.2578125  15.2653882575758 16.818359375  14.8870738636364 17.291015625  C 14.508759469697 17.763671875  14.0539772727273 18  13.5227272727273 18  L 3.47727272727275 18  C 2.94602272727275 18  2.491240530303 17.771484375  2.11292613636363 17.314453125  C 1.73461174242425 16.857421875  1.54545454545456 16.3046875  1.54545454545456 15.65625  L 1.54545454545456 4.5  L 0.386363636363626 4.5  C 0.273674242424249 4.5  0.181107954545439 4.46484375  0.108664772727252 4.39453125  C 0.0362215909090651 4.32421875  0 4.234375  0 4.125  L 0 3.375  C 0 3.265625  0.0362215909090651 3.17578125  0.108664772727252 3.10546875  C 0.181107954545439 3.03515625  0.273674242424249 3  0.386363636363626 3  L 4.1171875 3  L 4.96235795454544 1.04296875  C 5.08309659090907 0.75390625  5.30042613636363 0.5078125  5.61434659090907 0.3046875  C 5.92826704545456 0.1015625  6.24621212121212 0  6.56818181818181 0  L 10.4318181818182 0  C 10.7537878787879 0  11.0717329545454 0.1015625  11.3856534090909 0.3046875  C 11.6995738636364 0.5078125  11.9169034090909 0.75390625  12.0376420454546 1.04296875  L 12.8828125 3  L 16.6136363636364 3  C 16.7263257575758 3  16.8188920454545 3.03515625  16.8913352272727 3.10546875  Z " fill-rule="nonzero" fill="#cccccc" stroke="none" transform="matrix(1 0 0 1 837 525 )" />
  </g>
</svg>