<?xml version="1.0" encoding="utf-8"?>
<svg version="1.1" xmlns:xlink="http://www.w3.org/1999/xlink" width="11px" height="6px" xmlns="http://www.w3.org/2000/svg">
  <g transform="matrix(1 0 0 1 -1111 -484 )">
    <path d="M 10.8897795591182 0.618556701030911  C 10.9632598530394 0.687285223367724  11 0.766323024054998  11 0.855670103092791  C 11 0.945017182130584  10.9632598530394 1.02405498281786  10.8897795591182 1.09278350515461  L 5.75350701402806 5.89690721649487  C 5.68002672010687 5.96563573883162  5.59552438209755 6  5.5 6  C 5.40447561790245 6  5.31997327989313 5.96563573883162  5.24649298597194 5.89690721649487  L 0.11022044088179 1.09278350515461  C 0.0367401469605966 1.02405498281786  0 0.945017182130584  0 0.855670103092791  C 0 0.766323024054998  0.0367401469605966 0.687285223367724  0.11022044088179 0.618556701030911  L 0.661322645290511 0.103092783505133  C 0.734802939211818 0.0343642611683777  0.819305277221133 0  0.914829659318571 0  C 1.01035404141612 0  1.09485637942555 0.0343642611683777  1.16833667334663 0.103092783505133  L 5.5 4.15463917525773  L 9.83166332665337 0.103092783505133  C 9.90514362057445 0.0343642611683777  9.98964595858388 0  10.0851703406814 0  C 10.1806947227789 0  10.2651970607882 0.0343642611683777  10.3386773547095 0.103092783505133  L 10.8897795591182 0.618556701030911  Z " fill-rule="nonzero" fill="#cccccc" stroke="none" transform="matrix(1 0 0 1 1111 484 )" />
  </g>
</svg>