<?xml version="1.0" encoding="utf-8"?>
<svg version="1.1" xmlns:xlink="http://www.w3.org/1999/xlink" width="11px" height="6px" xmlns="http://www.w3.org/2000/svg">
  <g transform="matrix(1 0 0 1 -1111 -271 )">
    <path d="M 10.8897795591182 4.90721649484536  C 10.9632598530394 4.97594501718213  11 5.05498281786942  11 5.14432989690722  C 11 5.23367697594502  10.9632598530394 5.3127147766323  10.8897795591182 5.38144329896907  L 10.3386773547095 5.89690721649484  C 10.2651970607882 5.96563573883161  10.1806947227789 6  10.0851703406814 6  C 9.98964595858388 6  9.90514362057445 5.96563573883161  9.83166332665337 5.89690721649484  L 5.5 1.84536082474227  L 1.16833667334663 5.89690721649484  C 1.09485637942555 5.96563573883161  1.01035404141612 6  0.914829659318571 6  C 0.819305277221133 6  0.734802939211818 5.96563573883161  0.661322645290511 5.89690721649484  L 0.11022044088179 5.38144329896907  C 0.0367401469605966 5.3127147766323  0 5.23367697594502  0 5.14432989690722  C 0 5.05498281786942  0.0367401469605966 4.97594501718213  0.11022044088179 4.90721649484536  L 5.24649298597194 0.103092783505161  C 5.31997327989313 0.0343642611683919  5.40447561790245 0  5.5 0  C 5.59552438209755 0  5.68002672010687 0.0343642611683919  5.75350701402806 0.103092783505161  L 10.8897795591182 4.90721649484536  Z " fill-rule="nonzero" fill="#cccccc" stroke="none" transform="matrix(1 0 0 1 1111 271 )" />
  </g>
</svg>