<?xml version="1.0" encoding="utf-8"?>
<svg version="1.1" xmlns:xlink="http://www.w3.org/1999/xlink" width="50px" height="68px" xmlns="http://www.w3.org/2000/svg">
  <g transform="matrix(1 0 0 1 -250 -219 )">
    <path d="M 250.5 286.5  C 250.5 286.5  250.5 237.916666666667  250.5 237.916666666667  C 250.5 237.916666666667  264.973752066888 237.916666666667  264.973752066888 237.916666666667  C 264.973752066888 237.916666666667  275.507317280692 219.975102795755  275.507317280692 219.975102795755  C 275.507317280692 219.975102795755  286.406208455669 237.916666666667  286.406208455669 237.916666666667  C 286.406208455669 237.916666666667  299.5 237.916666666667  299.5 237.916666666667  C 299.5 237.916666666667  299.5 286.5  299.5 286.5  C 299.5 286.5  250.5 286.5  250.5 286.5  Z " fill-rule="nonzero" fill="#ffffff" stroke="none" />
    <path d="M 250 287  C 250 287  250 237.416666666667  250 237.416666666667  C 250 237.416666666667  264.6875 237.416666666667  264.6875 237.416666666667  C 264.6875 237.416666666667  275.5 219  275.5 219  C 275.5 219  286.6875 237.416666666667  286.6875 237.416666666667  C 286.6875 237.416666666667  300 237.416666666667  300 237.416666666667  C 300 237.416666666667  300 287  300 287  C 300 287  250 287  250 287  Z M 251 286  C 251 286  299 286  299 286  C 299 286  299 238.416666666667  299 238.416666666667  C 299 238.416666666667  286.124916911338 238.416666666667  286.124916911338 238.416666666667  C 286.124916911338 238.416666666667  275.514634561385 220.95020559151  275.514634561385 220.95020559151  C 275.514634561385 220.95020559151  265.260004133776 238.416666666667  265.260004133776 238.416666666667  C 265.260004133776 238.416666666667  251 238.416666666667  251 238.416666666667  C 251 238.416666666667  251 286  251 286  Z " fill-rule="nonzero" fill="#cccccc" stroke="none" />
  </g>
</svg>