<?xml version="1.0" encoding="utf-8"?>
<svg version="1.1" xmlns:xlink="http://www.w3.org/1999/xlink" width="17px" height="17px" xmlns="http://www.w3.org/2000/svg">
  <g transform="matrix(1 0 0 1 -427 -199 )">
    <path d="M 11.2337239583334 14.0670572916667  C 11.3001302083334 14.0006510416667  11.3333333333334 13.9157986111111  11.3333333333334 13.8125  L 11.3333333333334 12.0416666666667  C 11.3333333333334 11.9383680555555  11.3001302083334 11.853515625  11.2337239583334 11.787109375  C 11.1673177083334 11.720703125  11.0824652777778 11.6875  10.9791666666666 11.6875  L 9.91666666666663 11.6875  L 9.91666666666663 6.02083333333331  C 9.91666666666663 5.91753472222223  9.88346354166663 5.83268229166669  9.81705729166663 5.76627604166669  C 9.75065104166663 5.69986979166669  9.66579861111109 5.66666666666669  9.5625 5.66666666666669  L 6.02083333333331 5.66666666666669  C 5.91753472222223 5.66666666666669  5.83268229166669 5.69986979166669  5.76627604166669 5.76627604166669  C 5.69986979166669 5.83268229166669  5.66666666666669 5.91753472222223  5.66666666666669 6.02083333333331  L 5.66666666666669 7.79166666666669  C 5.66666666666669 7.89496527777777  5.69986979166669 7.97981770833331  5.76627604166669 8.04622395833331  C 5.83268229166669 8.11263020833331  5.91753472222223 8.14583333333331  6.02083333333331 8.14583333333331  L 7.08333333333331 8.14583333333331  L 7.08333333333331 11.6875  L 6.02083333333331 11.6875  C 5.91753472222223 11.6875  5.83268229166669 11.720703125  5.76627604166669 11.787109375  C 5.69986979166669 11.853515625  5.66666666666669 11.9383680555555  5.66666666666669 12.0416666666667  L 5.66666666666669 13.8125  C 5.66666666666669 13.9157986111111  5.69986979166669 14.0006510416667  5.76627604166669 14.0670572916667  C 5.83268229166669 14.1334635416667  5.91753472222223 14.1666666666667  6.02083333333331 14.1666666666667  L 10.9791666666666 14.1666666666667  C 11.0824652777778 14.1666666666667  11.1673177083334 14.1334635416667  11.2337239583334 14.0670572916667  Z M 9.81705729166663 4.150390625  C 9.88346354166663 4.083984375  9.91666666666663 3.99913194444446  9.91666666666663 3.89583333333331  L 9.91666666666663 2.125  C 9.91666666666663 2.02170138888891  9.88346354166663 1.93684895833331  9.81705729166663 1.87044270833331  C 9.75065104166663 1.80403645833331  9.66579861111109 1.77083333333331  9.5625 1.77083333333331  L 7.4375 1.77083333333331  C 7.33420138888891 1.77083333333331  7.24934895833331 1.80403645833331  7.18294270833331 1.87044270833331  C 7.11653645833331 1.93684895833331  7.08333333333331 2.02170138888891  7.08333333333331 2.125  L 7.08333333333331 3.89583333333331  C 7.08333333333331 3.99913194444446  7.11653645833331 4.083984375  7.18294270833331 4.150390625  C 7.24934895833331 4.216796875  7.33420138888891 4.25  7.4375 4.25  L 9.5625 4.25  C 9.66579861111109 4.25  9.75065104166663 4.216796875  9.81705729166663 4.150390625  Z M 15.8600260416666 4.2333984375  C 16.6200086805555 5.53569878472223  17 6.95789930555554  17 8.5  C 17 10.0421006944445  16.6200086805555 11.4643012152778  15.8600260416666 12.7666015625  C 15.1000434027778 14.0689019097222  14.0689019097222 15.1000434027778  12.7666015625 15.8600260416667  C 11.4643012152778 16.6200086805555  10.0421006944445 17  8.5 17  C 6.95789930555554 17  5.53569878472223 16.6200086805555  4.2333984375 15.8600260416667  C 2.93109809027777 15.1000434027778  1.89995659722223 14.0689019097222  1.13997395833331 12.7666015625  C 0.379991319444457 11.4643012152778  0 10.0421006944445  0 8.5  C 0 6.95789930555554  0.379991319444457 5.53569878472223  1.13997395833331 4.2333984375  C 1.89995659722223 2.93109809027777  2.93109809027777 1.89995659722223  4.2333984375 1.13997395833331  C 5.53569878472223 0.379991319444457  6.95789930555554 0  8.5 0  C 10.0421006944445 0  11.4643012152778 0.379991319444457  12.7666015625 1.13997395833331  C 14.0689019097222 1.89995659722223  15.1000434027778 2.93109809027777  15.8600260416666 4.2333984375  Z " fill-rule="nonzero" fill="#cccccc" stroke="none" transform="matrix(1 0 0 1 427 199 )" />
  </g>
</svg>