<?xml version="1.0" encoding="utf-8"?>
<svg version="1.1" xmlns:xlink="http://www.w3.org/1999/xlink" width="13px" height="10px" xmlns="http://www.w3.org/2000/svg">
  <g transform="matrix(1 0 0 1 -757 -105 )">
    <path d="M 12.7651612903226 1.38047138047136  C 12.9217204301075 1.53759820426488  13 1.72839506172841  13 1.95286195286194  C 13 2.17732884399551  12.9217204301075 2.36812570145904  12.7651612903226 2.52525252525251  L 6.6929032258065 8.61952861952864  L 5.55225806451608 9.76430976430977  C 5.39569892473116 9.92143658810325  5.20559139784939 10  4.98193548387098 10  C 4.75827956989247 10  4.5681720430108 9.92143658810325  4.41161290322577 9.76430976430977  L 3.27096774193546 8.61952861952864  L 0.234838709677433 5.57239057239057  C 0.0782795698925156 5.41526374859707  0 5.22446689113355  0 5  C 0 4.77553310886645  0.0782795698925156 4.58473625140293  0.234838709677433 4.42760942760943  L 1.37548387096774 3.28282828282829  C 1.53204301075266 3.12570145903477  1.72215053763443 3.04713804713806  1.94580645161284 3.04713804713806  C 2.16946236559136 3.04713804713806  2.35956989247313 3.12570145903477  2.51612903225805 3.28282828282829  L 4.98193548387098 5.76599326599327  L 10.483870967742 0.235690235690228  C 10.6404301075269 0.0785634118967522  10.8305376344086 0  11.0541935483872 0  C 11.2778494623656 0  11.4679569892473 0.0785634118967522  11.6245161290323 0.235690235690228  L 12.7651612903226 1.38047138047136  Z " fill-rule="nonzero" fill="#999999" stroke="none" transform="matrix(1 0 0 1 757 105 )" />
  </g>
</svg>