<?xml version="1.0" encoding="utf-8"?>
<svg version="1.1" xmlns:xlink="http://www.w3.org/1999/xlink" width="16px" height="16px" xmlns="http://www.w3.org/2000/svg">
  <g transform="matrix(1 0 0 1 -891 -99 )">
    <path d="M 15.59375 0.71875  C 15.8645833333334 0.836805555555557  16 1.04166666666669  16 1.33333333333331  L 16 6  C 16 6.18055555555556  15.9340277777777 6.33680555555556  15.8020833333334 6.46875  C 15.6701388888889 6.60069444444444  15.5138888888889 6.66666666666669  15.3333333333334 6.66666666666669  L 10.6666666666666 6.66666666666669  C 10.375 6.66666666666669  10.1701388888889 6.52777777777776  10.0520833333334 6.25  C 9.93402777777771 5.97916666666669  9.98263888888891 5.73958333333331  10.1979166666666 5.53125  L 11.6354166666666 4.09375  C 10.6076388888889 3.14236111111113  9.39583333333337 2.66666666666669  8 2.66666666666669  C 7.27777777777771 2.66666666666669  6.58854166666663 2.80729166666669  5.93229166666663 3.08854166666669  C 5.27604166666663 3.36979166666669  4.70833333333337 3.75  4.22916666666663 4.22916666666669  C 3.75 4.70833333333331  3.36979166666663 5.27604166666669  3.08854166666663 5.93229166666669  C 2.80729166666663 6.58854166666669  2.66666666666663 7.27777777777776  2.66666666666663 8  C 2.66666666666663 8.72222222222224  2.80729166666663 9.41145833333331  3.08854166666663 10.0677083333333  C 3.36979166666663 10.7239583333333  3.75 11.2916666666667  4.22916666666663 11.7708333333333  C 4.70833333333337 12.25  5.27604166666663 12.6302083333333  5.93229166666663 12.9114583333333  C 6.58854166666663 13.1927083333333  7.27777777777771 13.3333333333333  8 13.3333333333333  C 8.82638888888891 13.3333333333333  9.60763888888891 13.1527777777778  10.34375 12.7916666666667  C 11.0798611111111 12.4305555555556  11.7013888888889 11.9201388888889  12.2083333333334 11.2604166666667  C 12.2569444444445 11.1909722222222  12.3368055555555 11.1493055555556  12.4479166666666 11.1354166666667  C 12.5451388888889 11.1354166666667  12.6319444444445 11.1666666666667  12.7083333333334 11.2291666666667  L 14.1354166666666 12.6666666666667  C 14.1979166666666 12.7222222222222  14.2309027777777 12.7934027777778  14.234375 12.8802083333333  C 14.2378472222223 12.9670138888889  14.2118055555555 13.0451388888889  14.15625 13.1145833333333  C 13.3993055555555 14.03125  12.4826388888889 14.7413194444444  11.40625 15.2447916666667  C 10.3298611111111 15.7482638888889  9.19444444444446 16  8 16  C 6.91666666666663 16  5.88194444444446 15.7881944444444  4.89583333333337 15.3645833333333  C 3.90972222222229 14.9409722222222  3.05902777777771 14.3715277777778  2.34375 13.65625  C 1.62847222222229 12.9409722222222  1.05902777777771 12.0902777777778  0.635416666666629 11.1041666666667  C 0.211805555555543 10.1180555555556  0 9.08333333333331  0 8  C 0 6.91666666666669  0.211805555555543 5.88194444444444  0.635416666666629 4.89583333333331  C 1.05902777777771 3.90972222222224  1.62847222222229 3.05902777777776  2.34375 2.34375  C 3.05902777777771 1.62847222222224  3.90972222222229 1.05902777777776  4.89583333333337 0.635416666666686  C 5.88194444444446 0.211805555555557  6.91666666666663 0  8 0  C 9.02083333333337 0  10.0086805555555 0.192708333333314  10.9635416666666 0.578125  C 11.9184027777777 0.963541666666686  12.7673611111111 1.50694444444444  13.5104166666666 2.20833333333331  L 14.8645833333334 0.864583333333314  C 15.0659722222223 0.649305555555557  15.3090277777777 0.600694444444443  15.59375 0.71875  Z " fill-rule="nonzero" fill="#999999" stroke="none" transform="matrix(1 0 0 1 891 99 )" />
  </g>
</svg>