<?xml version="1.0" encoding="utf-8"?>
<svg version="1.1" xmlns:xlink="http://www.w3.org/1999/xlink" width="16px" height="12px" xmlns="http://www.w3.org/2000/svg">
  <g transform="matrix(1 0 0 1 -163 -43 )">
    <path d="M 15.7109677419355 1.65656565656565  C 15.9036559139785 1.84511784511784  16 2.07407407407408  16 2.34343434343435  C 16 2.6127946127946  15.9036559139785 2.84175084175084  15.7109677419355 3.03030303030303  L 8.23741935483872 10.3434343434344  L 6.83354838709681 11.7171717171717  C 6.64086021505375 11.9057239057239  6.40688172043008 12  6.1316129032258 12  C 5.85634408602152 12  5.62236559139785 11.9057239057239  5.42967741935479 11.7171717171717  L 4.02580645161288 10.3434343434344  L 0.289032258064481 6.68686868686868  C 0.0963440860215314 6.49831649831648  0 6.26936026936028  0 6  C 0 5.73063973063972  0.0963440860215314 5.50168350168349  0.289032258064481 5.31313131313132  L 1.6929032258065 3.93939393939394  C 1.88559139784945 3.75084175084174  2.11956989247312 3.65656565656565  2.3948387096774 3.65656565656565  C 2.67010752688168 3.65656565656565  2.90408602150535 3.75084175084174  3.09677419354841 3.93939393939394  L 6.1316129032258 6.91919191919192  L 12.9032258064516 0.282828282828291  C 13.0959139784947 0.094276094276097  13.3298924731183 0  13.6051612903226 0  C 13.8804301075269 0  14.1144086021505 0.094276094276097  14.3070967741935 0.282828282828291  L 15.7109677419355 1.65656565656565  Z " fill-rule="nonzero" fill="#999999" stroke="none" transform="matrix(1 0 0 1 163 43 )" />
  </g>
</svg>