<?xml version="1.0" encoding="utf-8"?>
<svg version="1.1" xmlns:xlink="http://www.w3.org/1999/xlink" width="14px" height="14px" xmlns="http://www.w3.org/2000/svg">
  <g transform="matrix(1 0 0 1 -144 -21 )">
    <path d="M 13.3456090651559 0  C 13.6232294617565 0  13.8182247403209 0.129261363636431  13.9305949008499 0.387784090909122  C 14.0429650613786 0.659564393939377  13.9966949952786 0.89157196969694  13.7917847025495 1.08380681818176  L 8.90368271954685 5.9857954545455  L 8.90368271954685 13.3636363636364  C 8.90368271954685 13.6420454545455  8.77478753541084 13.8375946969697  8.5169971671387 13.9502840909091  C 8.43106704438151 13.9834280303031  8.34844192634569 14  8.26912181303123 14  C 8.09065155807355 14  7.94192634560909 13.9370265151515  7.82294617563741 13.8110795454545  L 5.28470254957517 11.265625  C 5.15911237016053 11.1396780303031  5.09631728045315 10.9905303030303  5.09631728045315 10.8181818181818  L 5.09631728045315 5.9857954545455  L 0.208215297450465 1.08380681818176  C 0.00330500472136919 0.89157196969694  -0.0429650613785952 0.659564393939377  0.0694050991501172 0.387784090909122  C 0.181775259679057 0.129261363636431  0.376770538243477 0  0.654390934844059 0  L 13.3456090651559 0  Z " fill-rule="nonzero" fill="#999999" stroke="none" transform="matrix(1 0 0 1 144 21 )" />
  </g>
</svg>