<?xml version="1.0" encoding="utf-8"?>
<svg version="1.1" xmlns:xlink="http://www.w3.org/1999/xlink" width="20px" height="20px" xmlns="http://www.w3.org/2000/svg">
  <g transform="matrix(1 0 0 1 -305 -2 )">
    <path d="M 305 2  L 325 2  L 325 22  L 305 22  L 305 2  " fill-rule="nonzero" fill="#cccccc" stroke="none" />
    <path d="M 306 3  L 324 3  L 324 21  L 306 21  L 306 3  " fill-rule="nonzero" fill="#ffffff" stroke="none" />
    <path d="M 316.9 8  C 316.06 8  315.4 7.34  315.4 6.5  C 315.4 5.66  316.06 5  316.9 5  C 317.74 5  318.4 5.66  318.4 6.5  C 318.4 7.34  317.74 8  316.9 8  " fill-rule="nonzero" fill="#cccccc" stroke="none" />
    <path d="M 307 21  L 307 11.65  L 311.25 7.4  L 317.2 10.8  L 320.6 9.95  L 324 10.8  L 324 21  L 307 21  " fill-rule="nonzero" fill="#169bd5" stroke="none" />
  </g>
</svg>